<mxfile host="app.diagrams.net" modified="2024-02-06T13:09:06.989Z" agent="Mozilla/5.0 (Windows NT 10.0; Win64; x64) AppleWebKit/537.36 (KHTML, like Gecko) Chrome/121.0.0.0 Safari/537.36" version="22.1.18" etag="zBBFk1OSrdGt67k5jFq4" type="device">
  <diagram id="uZo1IocFHGQsdom5i_9Z" name="Страница — 1">
    <mxGraphModel dx="1687" dy="918" grid="1" gridSize="10" guides="1" tooltips="1" connect="1" arrows="1" fold="1" page="1" pageScale="1" pageWidth="827" pageHeight="1169" math="0" shadow="0">
      <root>
        <mxCell id="0" />
        <mxCell id="1" parent="0" />
        <mxCell id="GSJYfZEW6WjBY3KU4DAz-7" style="edgeStyle=orthogonalEdgeStyle;rounded=0;orthogonalLoop=1;jettySize=auto;html=1;entryX=0;entryY=0.5;entryDx=0;entryDy=0;" edge="1" parent="1" source="GSJYfZEW6WjBY3KU4DAz-1" target="GSJYfZEW6WjBY3KU4DAz-5">
          <mxGeometry relative="1" as="geometry" />
        </mxCell>
        <mxCell id="GSJYfZEW6WjBY3KU4DAz-1" value="&lt;font style=&quot;font-size: 17px;&quot;&gt;.env&lt;/font&gt;" style="text;html=1;strokeColor=none;fillColor=none;align=center;verticalAlign=middle;whiteSpace=wrap;rounded=0;" vertex="1" parent="1">
          <mxGeometry x="3" y="2" width="60" height="30" as="geometry" />
        </mxCell>
        <mxCell id="GSJYfZEW6WjBY3KU4DAz-11" style="edgeStyle=orthogonalEdgeStyle;rounded=0;orthogonalLoop=1;jettySize=auto;html=1;entryX=0;entryY=0.5;entryDx=0;entryDy=0;" edge="1" parent="1" source="GSJYfZEW6WjBY3KU4DAz-2" target="GSJYfZEW6WjBY3KU4DAz-10">
          <mxGeometry relative="1" as="geometry" />
        </mxCell>
        <mxCell id="GSJYfZEW6WjBY3KU4DAz-2" value="&lt;span style=&quot;font-size: 17px;&quot;&gt;config.ini&lt;/span&gt;" style="text;html=1;strokeColor=none;fillColor=none;align=center;verticalAlign=middle;whiteSpace=wrap;rounded=0;" vertex="1" parent="1">
          <mxGeometry x="3" y="157" width="90" height="30" as="geometry" />
        </mxCell>
        <mxCell id="GSJYfZEW6WjBY3KU4DAz-16" style="edgeStyle=orthogonalEdgeStyle;rounded=0;orthogonalLoop=1;jettySize=auto;html=1;" edge="1" parent="1" source="GSJYfZEW6WjBY3KU4DAz-3" target="GSJYfZEW6WjBY3KU4DAz-15">
          <mxGeometry relative="1" as="geometry" />
        </mxCell>
        <mxCell id="GSJYfZEW6WjBY3KU4DAz-3" value="&lt;span style=&quot;font-size: 17px;&quot;&gt;logging.yaml&lt;/span&gt;" style="text;html=1;strokeColor=none;fillColor=none;align=center;verticalAlign=middle;whiteSpace=wrap;rounded=0;" vertex="1" parent="1">
          <mxGeometry x="3" y="297" width="105" height="30" as="geometry" />
        </mxCell>
        <mxCell id="GSJYfZEW6WjBY3KU4DAz-8" style="edgeStyle=orthogonalEdgeStyle;rounded=0;orthogonalLoop=1;jettySize=auto;html=1;" edge="1" parent="1" source="GSJYfZEW6WjBY3KU4DAz-4">
          <mxGeometry relative="1" as="geometry">
            <mxPoint x="115.5" y="22" as="targetPoint" />
          </mxGeometry>
        </mxCell>
        <mxCell id="GSJYfZEW6WjBY3KU4DAz-4" value="&lt;font style=&quot;font-size: 17px;&quot;&gt;.test.env&lt;/font&gt;" style="text;html=1;strokeColor=none;fillColor=none;align=center;verticalAlign=middle;whiteSpace=wrap;rounded=0;" vertex="1" parent="1">
          <mxGeometry x="3" y="32" width="60" height="30" as="geometry" />
        </mxCell>
        <mxCell id="GSJYfZEW6WjBY3KU4DAz-5" value="DotenvSettings" style="rounded=0;whiteSpace=wrap;html=1;" vertex="1" parent="1">
          <mxGeometry x="162.5" width="120" height="35" as="geometry" />
        </mxCell>
        <mxCell id="GSJYfZEW6WjBY3KU4DAz-9" value="IniSettings" style="rounded=0;whiteSpace=wrap;html=1;" vertex="1" parent="1">
          <mxGeometry x="162.5" y="92.5" width="120" height="40" as="geometry" />
        </mxCell>
        <mxCell id="GSJYfZEW6WjBY3KU4DAz-12" style="edgeStyle=orthogonalEdgeStyle;rounded=0;orthogonalLoop=1;jettySize=auto;html=1;entryX=0.5;entryY=1;entryDx=0;entryDy=0;" edge="1" parent="1" source="GSJYfZEW6WjBY3KU4DAz-10" target="GSJYfZEW6WjBY3KU4DAz-9">
          <mxGeometry relative="1" as="geometry" />
        </mxCell>
        <mxCell id="GSJYfZEW6WjBY3KU4DAz-10" value="IniConfigSettings" style="rounded=0;whiteSpace=wrap;html=1;" vertex="1" parent="1">
          <mxGeometry x="162.5" y="152.5" width="120" height="40" as="geometry" />
        </mxCell>
        <mxCell id="GSJYfZEW6WjBY3KU4DAz-13" value="YamlSettings" style="rounded=0;whiteSpace=wrap;html=1;" vertex="1" parent="1">
          <mxGeometry x="162.5" y="232.5" width="120" height="40" as="geometry" />
        </mxCell>
        <mxCell id="GSJYfZEW6WjBY3KU4DAz-14" style="edgeStyle=orthogonalEdgeStyle;rounded=0;orthogonalLoop=1;jettySize=auto;html=1;entryX=0.5;entryY=1;entryDx=0;entryDy=0;" edge="1" parent="1" source="GSJYfZEW6WjBY3KU4DAz-15" target="GSJYfZEW6WjBY3KU4DAz-13">
          <mxGeometry relative="1" as="geometry" />
        </mxCell>
        <mxCell id="GSJYfZEW6WjBY3KU4DAz-15" value="YamlLoggingSettings" style="rounded=0;whiteSpace=wrap;html=1;" vertex="1" parent="1">
          <mxGeometry x="162.5" y="292.5" width="120" height="40" as="geometry" />
        </mxCell>
        <mxCell id="GSJYfZEW6WjBY3KU4DAz-17" value="Settings" style="rounded=0;whiteSpace=wrap;html=1;" vertex="1" parent="1">
          <mxGeometry x="335.5" y="154.5" width="120" height="35" as="geometry" />
        </mxCell>
        <mxCell id="GSJYfZEW6WjBY3KU4DAz-19" value="" style="endArrow=open;endFill=1;endSize=12;html=1;rounded=0;exitX=1;exitY=0.5;exitDx=0;exitDy=0;entryX=0;entryY=0.25;entryDx=0;entryDy=0;" edge="1" parent="1" source="GSJYfZEW6WjBY3KU4DAz-5" target="GSJYfZEW6WjBY3KU4DAz-17">
          <mxGeometry width="160" relative="1" as="geometry">
            <mxPoint x="395.5" y="192" as="sourcePoint" />
            <mxPoint x="555.5" y="192" as="targetPoint" />
          </mxGeometry>
        </mxCell>
        <mxCell id="GSJYfZEW6WjBY3KU4DAz-21" value="" style="endArrow=open;endFill=1;endSize=12;html=1;rounded=0;exitX=1;exitY=0.5;exitDx=0;exitDy=0;entryX=0;entryY=0.5;entryDx=0;entryDy=0;" edge="1" parent="1" source="GSJYfZEW6WjBY3KU4DAz-10" target="GSJYfZEW6WjBY3KU4DAz-17">
          <mxGeometry width="160" relative="1" as="geometry">
            <mxPoint x="295.5" y="192" as="sourcePoint" />
            <mxPoint x="455.5" y="192" as="targetPoint" />
          </mxGeometry>
        </mxCell>
        <mxCell id="GSJYfZEW6WjBY3KU4DAz-22" value="" style="endArrow=open;endFill=1;endSize=12;html=1;rounded=0;exitX=1;exitY=0.5;exitDx=0;exitDy=0;entryX=0;entryY=0.75;entryDx=0;entryDy=0;" edge="1" parent="1" source="GSJYfZEW6WjBY3KU4DAz-15" target="GSJYfZEW6WjBY3KU4DAz-17">
          <mxGeometry width="160" relative="1" as="geometry">
            <mxPoint x="315.5" y="312" as="sourcePoint" />
            <mxPoint x="515.5" y="122" as="targetPoint" />
          </mxGeometry>
        </mxCell>
        <mxCell id="GSJYfZEW6WjBY3KU4DAz-25" value="&lt;p style=&quot;margin:0px;margin-top:4px;text-align:center;&quot;&gt;&lt;br&gt;&lt;b&gt;Application&lt;/b&gt;&lt;/p&gt;" style="verticalAlign=top;align=left;overflow=fill;fontSize=12;fontFamily=Helvetica;html=1;whiteSpace=wrap;rotation=90;" vertex="1" parent="1">
          <mxGeometry x="241.5" y="541" width="308" height="46" as="geometry" />
        </mxCell>
        <mxCell id="GSJYfZEW6WjBY3KU4DAz-26" value="Core" style="html=1;whiteSpace=wrap;" vertex="1" parent="1">
          <mxGeometry x="230" y="410" width="117.5" height="30" as="geometry" />
        </mxCell>
        <mxCell id="GSJYfZEW6WjBY3KU4DAz-27" value="Mappers" style="html=1;whiteSpace=wrap;" vertex="1" parent="1">
          <mxGeometry x="230" y="450" width="117.5" height="30" as="geometry" />
        </mxCell>
        <mxCell id="GSJYfZEW6WjBY3KU4DAz-28" value="Repositories" style="html=1;whiteSpace=wrap;" vertex="1" parent="1">
          <mxGeometry x="230" y="490" width="117.5" height="30" as="geometry" />
        </mxCell>
        <mxCell id="GSJYfZEW6WjBY3KU4DAz-29" value="Database" style="html=1;whiteSpace=wrap;" vertex="1" parent="1">
          <mxGeometry x="230" y="530" width="117.5" height="30" as="geometry" />
        </mxCell>
        <mxCell id="GSJYfZEW6WjBY3KU4DAz-30" value="UnitOfWork" style="html=1;whiteSpace=wrap;" vertex="1" parent="1">
          <mxGeometry x="230" y="570" width="117.5" height="30" as="geometry" />
        </mxCell>
        <mxCell id="GSJYfZEW6WjBY3KU4DAz-31" value="StorageServices" style="html=1;whiteSpace=wrap;" vertex="1" parent="1">
          <mxGeometry x="230" y="610" width="117.5" height="30" as="geometry" />
        </mxCell>
        <mxCell id="GSJYfZEW6WjBY3KU4DAz-32" value="ApiClients" style="html=1;whiteSpace=wrap;" vertex="1" parent="1">
          <mxGeometry x="230" y="650" width="117.5" height="30" as="geometry" />
        </mxCell>
        <mxCell id="GSJYfZEW6WjBY3KU4DAz-33" value="Master" style="html=1;whiteSpace=wrap;" vertex="1" parent="1">
          <mxGeometry x="230" y="690" width="117.5" height="30" as="geometry" />
        </mxCell>
        <mxCell id="GSJYfZEW6WjBY3KU4DAz-35" style="edgeStyle=orthogonalEdgeStyle;rounded=0;orthogonalLoop=1;jettySize=auto;html=1;entryX=0.048;entryY=1.001;entryDx=0;entryDy=0;entryPerimeter=0;" edge="1" parent="1" source="GSJYfZEW6WjBY3KU4DAz-26" target="GSJYfZEW6WjBY3KU4DAz-25">
          <mxGeometry relative="1" as="geometry" />
        </mxCell>
        <mxCell id="GSJYfZEW6WjBY3KU4DAz-36" style="edgeStyle=orthogonalEdgeStyle;rounded=0;orthogonalLoop=1;jettySize=auto;html=1;entryX=0.179;entryY=0.993;entryDx=0;entryDy=0;entryPerimeter=0;" edge="1" parent="1" source="GSJYfZEW6WjBY3KU4DAz-27" target="GSJYfZEW6WjBY3KU4DAz-25">
          <mxGeometry relative="1" as="geometry" />
        </mxCell>
        <mxCell id="GSJYfZEW6WjBY3KU4DAz-37" style="edgeStyle=orthogonalEdgeStyle;rounded=0;orthogonalLoop=1;jettySize=auto;html=1;entryX=0.308;entryY=1.002;entryDx=0;entryDy=0;entryPerimeter=0;" edge="1" parent="1" source="GSJYfZEW6WjBY3KU4DAz-28" target="GSJYfZEW6WjBY3KU4DAz-25">
          <mxGeometry relative="1" as="geometry" />
        </mxCell>
        <mxCell id="GSJYfZEW6WjBY3KU4DAz-38" style="edgeStyle=orthogonalEdgeStyle;rounded=0;orthogonalLoop=1;jettySize=auto;html=1;entryX=0.438;entryY=1.001;entryDx=0;entryDy=0;entryPerimeter=0;" edge="1" parent="1" source="GSJYfZEW6WjBY3KU4DAz-29" target="GSJYfZEW6WjBY3KU4DAz-25">
          <mxGeometry relative="1" as="geometry" />
        </mxCell>
        <mxCell id="GSJYfZEW6WjBY3KU4DAz-39" style="edgeStyle=orthogonalEdgeStyle;rounded=0;orthogonalLoop=1;jettySize=auto;html=1;entryX=0.568;entryY=0.996;entryDx=0;entryDy=0;entryPerimeter=0;" edge="1" parent="1" source="GSJYfZEW6WjBY3KU4DAz-30" target="GSJYfZEW6WjBY3KU4DAz-25">
          <mxGeometry relative="1" as="geometry" />
        </mxCell>
        <mxCell id="GSJYfZEW6WjBY3KU4DAz-40" style="edgeStyle=orthogonalEdgeStyle;rounded=0;orthogonalLoop=1;jettySize=auto;html=1;entryX=0.698;entryY=1.006;entryDx=0;entryDy=0;entryPerimeter=0;" edge="1" parent="1" source="GSJYfZEW6WjBY3KU4DAz-31" target="GSJYfZEW6WjBY3KU4DAz-25">
          <mxGeometry relative="1" as="geometry" />
        </mxCell>
        <mxCell id="GSJYfZEW6WjBY3KU4DAz-41" style="edgeStyle=orthogonalEdgeStyle;rounded=0;orthogonalLoop=1;jettySize=auto;html=1;entryX=0.828;entryY=0.999;entryDx=0;entryDy=0;entryPerimeter=0;" edge="1" parent="1" source="GSJYfZEW6WjBY3KU4DAz-32" target="GSJYfZEW6WjBY3KU4DAz-25">
          <mxGeometry relative="1" as="geometry" />
        </mxCell>
        <mxCell id="GSJYfZEW6WjBY3KU4DAz-43" style="edgeStyle=orthogonalEdgeStyle;rounded=0;orthogonalLoop=1;jettySize=auto;html=1;entryX=0.958;entryY=0.996;entryDx=0;entryDy=0;entryPerimeter=0;" edge="1" parent="1" source="GSJYfZEW6WjBY3KU4DAz-33" target="GSJYfZEW6WjBY3KU4DAz-25">
          <mxGeometry relative="1" as="geometry" />
        </mxCell>
        <mxCell id="GSJYfZEW6WjBY3KU4DAz-44" value="&lt;pre style=&quot;background-color:#2b2b2b;color:#a9b7c6;font-family:&#39;JetBrains Mono&#39;,monospace;font-size:9,8pt;&quot;&gt;&lt;span style=&quot;color:#cc7832;&quot;&gt;def &lt;/span&gt;&lt;span style=&quot;color:#ffc66d;&quot;&gt;create_master_service&lt;/span&gt;() -&amp;gt; MasterService:&lt;br&gt;    application = Application()&lt;br&gt;    application.config.from_dict(get_config_dict())&lt;br&gt;    application.core.init_resources()&lt;br&gt;&lt;br&gt;    master_service = application.master.master_service_provider()&lt;br&gt;&lt;br&gt;    &lt;span style=&quot;color:#cc7832;&quot;&gt;return &lt;/span&gt;master_service&lt;/pre&gt;" style="text;whiteSpace=wrap;html=1;" vertex="1" parent="1">
          <mxGeometry x="585" y="297" width="460" height="160" as="geometry" />
        </mxCell>
        <mxCell id="GSJYfZEW6WjBY3KU4DAz-45" value="&lt;pre style=&quot;background-color:#2b2b2b;color:#a9b7c6;font-family:&#39;JetBrains Mono&#39;,monospace;font-size:9,8pt;&quot;&gt;&lt;span style=&quot;color:#cc7832;&quot;&gt;def &lt;/span&gt;&lt;span style=&quot;color:#ffc66d;&quot;&gt;get_config_dict&lt;/span&gt;() -&amp;gt; Dict:&lt;br&gt;&lt;br&gt;    dotenv_settings = DotenvSettings(&lt;br&gt;        &lt;span style=&quot;color:#aa4926;&quot;&gt;_env_file&lt;/span&gt;=os.path.join(ROOT_DIR&lt;span style=&quot;color:#cc7832;&quot;&gt;, &lt;/span&gt;&lt;span style=&quot;color:#6a8759;&quot;&gt;&quot;.env&quot;&lt;/span&gt;)&lt;br&gt;    ).model_dump()&lt;br&gt;    config_ini_settings = IniConfigSettings(&lt;br&gt;        &lt;span style=&quot;color:#aa4926;&quot;&gt;ini_file&lt;/span&gt;=os.path.join(ROOT_DIR&lt;span style=&quot;color:#cc7832;&quot;&gt;, &lt;/span&gt;&lt;span style=&quot;color:#6a8759;&quot;&gt;&quot;config.ini&quot;&lt;/span&gt;)&lt;span style=&quot;color:#cc7832;&quot;&gt;, &lt;/span&gt;&lt;span style=&quot;color:#aa4926;&quot;&gt;root_dir&lt;/span&gt;=ROOT_DIR&lt;br&gt;    )&lt;br&gt;    logging_yaml_settings = YamlLoggingSettings(&lt;br&gt;        &lt;span style=&quot;color:#aa4926;&quot;&gt;yaml_file&lt;/span&gt;=os.path.join(ROOT_DIR&lt;span style=&quot;color:#cc7832;&quot;&gt;, &lt;/span&gt;&lt;span style=&quot;color:#6a8759;&quot;&gt;&quot;logging.yaml&quot;&lt;/span&gt;)&lt;br&gt;    )&lt;br&gt;    settings_dict = merge_dicts(&lt;br&gt;        dotenv_settings&lt;span style=&quot;color:#cc7832;&quot;&gt;, &lt;/span&gt;config_ini_settings&lt;span style=&quot;color:#cc7832;&quot;&gt;, &lt;/span&gt;logging_yaml_settings&lt;br&gt;    )&lt;br&gt;&lt;br&gt;    &lt;span style=&quot;color:#cc7832;&quot;&gt;return &lt;/span&gt;settings_dict&lt;/pre&gt;" style="text;whiteSpace=wrap;html=1;" vertex="1" parent="1">
          <mxGeometry x="560" y="2" width="510" height="280" as="geometry" />
        </mxCell>
        <mxCell id="GSJYfZEW6WjBY3KU4DAz-46" value="&lt;pre style=&quot;background-color:#2b2b2b;color:#a9b7c6;font-family:&#39;JetBrains Mono&#39;,monospace;font-size:9,8pt;&quot;&gt;&lt;span style=&quot;color:#cc7832;&quot;&gt;async def &lt;/span&gt;&lt;span style=&quot;color:#ffc66d;&quot;&gt;main&lt;/span&gt;() -&amp;gt; &lt;span style=&quot;color:#cc7832;&quot;&gt;None&lt;/span&gt;:&lt;br&gt;    master_service = create_master_service()&lt;br&gt;    &lt;span style=&quot;color:#cc7832;&quot;&gt;await &lt;/span&gt;master_service.start()&lt;/pre&gt;" style="text;whiteSpace=wrap;html=1;" vertex="1" parent="1">
          <mxGeometry x="640" y="480" width="320" height="90" as="geometry" />
        </mxCell>
        <mxCell id="GSJYfZEW6WjBY3KU4DAz-47" value="" style="endArrow=open;endFill=1;endSize=12;html=1;rounded=0;exitX=1;exitY=0.5;exitDx=0;exitDy=0;entryX=0;entryY=0.25;entryDx=0;entryDy=0;fillColor=#f8cecc;strokeColor=#b85450;" edge="1" parent="1" source="GSJYfZEW6WjBY3KU4DAz-17" target="GSJYfZEW6WjBY3KU4DAz-44">
          <mxGeometry width="160" relative="1" as="geometry">
            <mxPoint x="400" y="380" as="sourcePoint" />
            <mxPoint x="560" y="380" as="targetPoint" />
          </mxGeometry>
        </mxCell>
        <mxCell id="GSJYfZEW6WjBY3KU4DAz-48" value="" style="endArrow=open;endFill=1;endSize=12;html=1;rounded=0;exitX=0.5;exitY=0;exitDx=0;exitDy=0;entryX=0;entryY=0.5;entryDx=0;entryDy=0;fillColor=#f8cecc;strokeColor=#b85450;" edge="1" parent="1" source="GSJYfZEW6WjBY3KU4DAz-25" target="GSJYfZEW6WjBY3KU4DAz-44">
          <mxGeometry width="160" relative="1" as="geometry">
            <mxPoint x="500" y="370" as="sourcePoint" />
            <mxPoint x="660" y="370" as="targetPoint" />
          </mxGeometry>
        </mxCell>
      </root>
    </mxGraphModel>
  </diagram>
</mxfile>
